<?xml version="1.0" encoding="UTF-8"?>
<svg width="87px" height="51px" viewBox="0 0 87 51" version="1.1" xmlns="http://www.w3.org/2000/svg" xmlns:xlink="http://www.w3.org/1999/xlink">
    <title>Group</title>
    <g id="Page-1" stroke="none" stroke-width="1" fill="none" fill-rule="evenodd">
        <g id="Group" fill="#282828" fill-rule="nonzero">
            <path d="M4.5984375,51 L4.5984375,42.9210938 L7.1296875,42.9210938 C9.7171875,42.9210938 11.6630859,42.2707031 12.9673828,40.9699219 C14.2716797,39.6691406 14.9238281,38.0589844 14.9238281,36.1394531 C14.9238281,35.0074219 14.6970703,34.0125 14.2435547,33.1546875 C13.7900391,32.296875 13.1185547,31.6464844 12.2291016,31.2035156 C11.3396484,30.7605469 9.80859375,30.5390625 7.6359375,30.5390625 L7.6359375,30.5390625 L1.940625,30.5390625 L1.940625,51 L4.5984375,51 Z M6.39140625,40.875 L4.5984375,40.875 L4.5984375,32.5957031 L7.68867188,32.5957031 C9.47460938,32.5957031 10.6681641,32.9314453 11.2693359,33.6029297 C11.8705078,34.2744141 12.1710938,35.1585937 12.1710938,36.2554687 C12.1710938,37.5210937 11.7966797,38.6074219 11.0478516,39.5144531 C10.2990234,40.4214844 8.746875,40.875 6.39140625,40.875 L6.39140625,40.875 Z M18.6363281,51 L20.9566406,45.3679687 L29.9847656,45.3679687 L32.1046875,51 L34.9839844,51 L27.2425781,30.5390625 L24.553125,30.5390625 L16.1683594,51 L18.6363281,51 Z M29.19375,43.321875 L21.7582031,43.321875 L25.6078125,33.8191406 L29.19375,43.321875 Z M39.9832031,51 L39.9832031,42.9210938 L42.5144531,42.9210938 C45.1019531,42.9210938 47.0478516,42.2707031 48.3521484,40.9699219 C49.6564453,39.6691406 50.3085938,38.0589844 50.3085938,36.1394531 C50.3085938,35.0074219 50.0818359,34.0125 49.6283203,33.1546875 C49.1748047,32.296875 48.5033203,31.6464844 47.6138672,31.2035156 C46.7244141,30.7605469 45.1933594,30.5390625 43.0207031,30.5390625 L43.0207031,30.5390625 L37.3253906,30.5390625 L37.3253906,51 L39.9832031,51 Z M41.7761719,40.875 L39.9832031,40.875 L39.9832031,32.5957031 L43.0734375,32.5957031 C44.859375,32.5957031 46.0529297,32.9314453 46.6541016,33.6029297 C47.2552734,34.2744141 47.5558594,35.1585937 47.5558594,36.2554687 C47.5558594,37.5210937 47.1814453,38.6074219 46.4326172,39.5144531 C45.6837891,40.4214844 44.1316406,40.875 41.7761719,40.875 L41.7761719,40.875 Z M55.7402344,51 L55.7402344,42.9210938 L58.2714844,42.9210938 C60.8589844,42.9210938 62.8048828,42.2707031 64.1091797,40.9699219 C65.4134766,39.6691406 66.065625,38.0589844 66.065625,36.1394531 C66.065625,35.0074219 65.8388672,34.0125 65.3853516,33.1546875 C64.9318359,32.296875 64.2603516,31.6464844 63.3708984,31.2035156 C62.4814453,30.7605469 60.9503906,30.5390625 58.7777344,30.5390625 L58.7777344,30.5390625 L53.0824219,30.5390625 L53.0824219,51 L55.7402344,51 Z M57.5332031,40.875 L55.7402344,40.875 L55.7402344,32.5957031 L58.8304688,32.5957031 C60.6164062,32.5957031 61.8099609,32.9314453 62.4111328,33.6029297 C63.0123047,34.2744141 63.3128906,35.1585937 63.3128906,36.2554687 C63.3128906,37.5210937 62.9384766,38.6074219 62.1896484,39.5144531 C61.4408203,40.4214844 59.8886719,40.875 57.5332031,40.875 L57.5332031,40.875 Z M69.778125,51 L72.0984375,45.3679687 L81.1265625,45.3679687 L83.2464844,51 L86.1257812,51 L78.384375,30.5390625 L75.6949219,30.5390625 L67.3101562,51 L69.778125,51 Z M80.3355469,43.321875 L72.9,43.321875 L76.7496094,33.8191406 L80.3355469,43.321875 Z" id="PAPPA"></path>
            <path d="M4.40482433,25 L7.16098584,18.1887755 L16.5873099,18.1887755 L19.1169376,25 L24,25 L14.6743576,0 L10.1059255,0 L0,25 L4.40482433,25 Z M16,15 L9,15 L12.6082474,6 C12.9049255,6.79946164 13.1935853,7.56864065 13.4742268,8.30753701 C13.7548683,9.04643338 14.0315006,9.77725437 14.3041237,10.5 C14.5767468,11.2227456 14.8513746,11.9535666 15.1280069,12.692463 C15.4046392,13.4313594 15.6953036,14.2005384 16,15 L16,15 Z M30.6809771,25 L30.6809771,15.2295918 L32.945966,15.2295918 C34.6153467,15.2295918 36.083395,15.0212585 37.350111,14.6045918 C38.616827,14.1879252 39.6444609,13.5969388 40.4330126,12.8316327 C41.2467308,11.9812925 41.8779916,11.0544218 42.326795,10.0510204 C42.7755983,9.04761905 43,7.99744898 43,6.9005102 C43,6.2542517 42.9224032,5.62712585 42.7672095,5.01913265 C42.6120158,4.41113946 42.3876141,3.81377551 42.0940044,3.22704082 C41.8591167,2.78486395 41.5046879,2.35544218 41.030718,1.93877551 C40.5567481,1.52210884 40.0009869,1.14795918 39.3634345,0.816326531 C38.8181594,0.552721088 38.0568715,0.350765306 37.0795707,0.210459184 C36.1022699,0.0701530612 34.925734,0 33.549963,0 L33.549963,0 L26,0 L26,25 L30.6809771,25 Z M31.4715719,13 L30,13 L30,3 L33.1170569,3 C34.9988852,3 36.309922,3.40522876 37.0501672,4.21568627 C37.6833891,4.91285403 38,5.97603486 38,7.40522876 C38,9.06971678 37.5852843,10.3899782 36.7558528,11.3660131 C35.8283166,12.4553377 34.0668896,13 31.4715719,13 L31.4715719,13 Z M49.6809771,25 L49.6809771,15.2295918 L51.945966,15.2295918 C53.6153467,15.2295918 55.083395,15.0212585 56.350111,14.6045918 C57.616827,14.1879252 58.6444609,13.5969388 59.4330126,12.8316327 C60.2467308,11.9812925 60.8779916,11.0544218 61.326795,10.0510204 C61.7755983,9.04761905 62,7.99744898 62,6.9005102 C62,6.2542517 61.9224032,5.62712585 61.7672095,5.01913265 C61.6120158,4.41113946 61.3876141,3.81377551 61.0940044,3.22704082 C60.8591167,2.78486395 60.5046879,2.35544218 60.030718,1.93877551 C59.5567481,1.52210884 59.0009869,1.14795918 58.3634345,0.816326531 C57.8181594,0.552721088 57.0568715,0.350765306 56.0795707,0.210459184 C55.1022699,0.0701530612 53.925734,0 52.549963,0 L52.549963,0 L45,0 L45,25 L49.6809771,25 Z M51.4715719,13 L50,13 L50,3 L53.1170569,3 C54.9988852,3 56.309922,3.40522876 57.0501672,4.21568627 C57.6833891,4.91285403 58,5.97603486 58,7.40522876 C58,9.06971678 57.5852843,10.3899782 56.7558528,11.3660131 C55.8283166,12.4553377 54.0668896,13 51.4715719,13 L51.4715719,13 Z M67.4048243,25 L70.1609858,18.1887755 L79.5873099,18.1887755 L82.1169376,25 L87,25 L77.6743576,0 L73.1059255,0 L63,25 L67.4048243,25 Z M78,15 L71,15 L74.6082474,6 C74.9049255,6.79946164 75.1935853,7.56864065 75.4742268,8.30753701 C75.7548683,9.04643338 76.0315006,9.77725437 76.3041237,10.5 C76.5767468,11.2227456 76.8513746,11.9535666 77.1280069,12.692463 C77.4046392,13.4313594 77.6953036,14.2005384 78,15 L78,15 Z" id="APPA"></path>
        </g>
    </g>
</svg>